<?xml version="1.0" encoding="UTF-8" standalone="no"?>
<!DOCTYPE svg PUBLIC "-//W3C//DTD SVG 1.1//EN" "http://www.w3.org/Graphics/SVG/1.1/DTD/svg11.dtd">
<svg width="100%" height="100%" viewBox="0 0 16 16" version="1.1" xmlns="http://www.w3.org/2000/svg" xmlns:xlink="http://www.w3.org/1999/xlink" xml:space="preserve" xmlns:serif="http://www.serif.com/" style="fill-rule:evenodd;clip-rule:evenodd;stroke-linejoin:round;stroke-miterlimit:2;">
    <g transform="matrix(0.049212,0,0,0.049212,2.17213,1.98905)">
        <path d="M206.299,0.528C208.278,0.528 209.892,1.024 211.149,2.013C212.4,3.002 213.258,4.323 213.721,5.973C214.183,7.622 214.247,9.503 213.919,11.614C213.589,13.727 212.831,15.838 211.643,17.948C211.378,18.212 211.049,18.212 210.653,17.948C210.258,17.683 209.993,17.355 209.862,16.958C210.125,15.374 209.566,14.056 208.179,12.999C206.794,11.945 204.647,11.415 201.746,11.415C196.334,11.415 190.891,13.428 185.416,17.453C179.939,21.48 174.627,26.793 169.482,33.387C164.335,39.987 159.517,47.577 155.032,56.152C150.548,64.721 146.645,73.582 143.352,82.676C140.054,91.781 137.445,100.821 135.534,109.794C133.621,118.77 132.666,126.949 132.666,134.341C132.666,138.297 133.786,140.278 136.031,140.278C137.614,140.278 139.164,139.618 140.681,138.297C142.197,136.979 143.949,135.001 145.928,132.359C146.323,132.099 146.686,132.131 147.015,132.459C147.344,132.792 147.443,133.219 147.314,133.744C144.671,137.704 141.573,141.003 138.009,143.641C134.447,146.283 131.211,147.601 128.31,147.601C125.802,147.601 124.055,146.875 123.066,145.422C122.077,143.972 121.581,142.127 121.581,139.882C121.581,133.679 122.898,125.924 125.541,116.624C128.179,107.32 131.706,97.49 136.131,87.129C140.551,76.771 145.664,66.445 151.471,56.152C157.277,45.859 163.315,36.59 169.584,28.342C175.85,20.095 182.154,13.397 188.487,8.249C194.817,3.1 200.755,0.528 206.3,0.528L206.299,0.528ZM30.55,243.76C28.57,243.76 26.955,243.265 25.699,242.276C24.447,241.287 23.589,239.966 23.126,238.316C22.666,236.665 22.6,234.786 22.928,232.675C23.26,230.562 24.017,228.452 25.204,226.341C25.47,226.075 25.798,226.075 26.194,226.341C26.589,226.603 26.854,226.934 26.985,227.331C26.723,228.915 27.282,230.233 28.668,231.29C30.053,232.343 32.199,232.872 35.101,232.872C40.513,232.872 45.957,230.859 51.431,226.834C56.908,222.811 62.221,217.499 67.367,210.903C72.513,204.303 77.331,196.715 81.817,188.138C86.301,179.569 90.202,170.707 93.494,161.613C96.794,152.508 99.402,143.469 101.314,134.495C103.227,125.52 104.182,117.34 104.182,109.95C104.182,105.99 103.062,104.012 100.817,104.012C99.233,104.012 97.683,104.669 96.167,105.99C94.651,107.307 92.899,109.29 90.92,111.93C90.525,112.19 90.163,112.158 89.833,111.83C89.505,111.498 89.406,111.069 89.535,110.541C92.177,106.585 95.275,103.283 98.839,100.644C102.401,98.006 105.636,96.688 108.538,96.688C111.046,96.688 112.793,97.41 113.782,98.863C114.772,100.316 115.268,102.163 115.268,104.408C115.268,110.61 113.95,118.361 111.308,127.666C108.67,136.97 105.142,146.799 100.718,157.16C96.298,167.518 91.184,177.844 85.378,188.137C79.571,198.43 73.534,207.699 67.265,215.947C60.999,224.194 54.695,230.893 48.361,236.038C42.03,241.186 36.092,243.76 30.55,243.76Z" style="fill:rgb(179,209,7);fill-rule:nonzero;"/>
    </g>
</svg>
